<?xml version="1.0" standalone="no"?>
<!DOCTYPE svg PUBLIC "-//W3C//DTD SVG 20010904//EN"
 "http://www.w3.org/TR/2001/REC-SVG-20010904/DTD/svg10.dtd">
<svg version="1.0" xmlns="http://www.w3.org/2000/svg"
 width="512.000000pt" height="512.000000pt" viewBox="0 0 512.000000 512.000000"
 preserveAspectRatio="xMidYMid meet">

<g transform="translate(0.000000,512.000000) scale(0.100000,-0.100000)"
fill="#000000" stroke="none">
<path d="M3040 4594 c-82 -22 -185 -75 -285 -146 -108 -76 -320 -285 -429
-423 -44 -55 -85 -105 -92 -110 -9 -8 -3 -16 25 -34 20 -13 31 -18 24 -11 -19
20 87 150 277 341 173 174 290 262 438 332 58 27 78 32 147 31 95 0 158 -27
218 -93 95 -105 138 -252 145 -498 6 -233 -20 -470 -81 -723 -27 -110 -9 -102
-179 -78 -54 8 -101 11 -106 6 -10 -10 -144 111 -136 123 3 5 0 8 -7 7 -7 -2
-13 4 -14 12 0 8 -7 15 -15 15 -22 0 -211 166 -203 178 4 6 1 7 -6 3 -15 -10
-53 23 -44 37 3 6 1 7 -6 3 -15 -10 -43 13 -34 27 3 6 1 7 -6 3 -15 -10 -43
13 -34 27 3 5 1 7 -5 3 -6 -3 -65 30 -132 74 -243 162 -594 361 -758 430 -29
13 -51 24 -49 26 2 3 21 -3 42 -11 20 -9 39 -14 41 -12 14 14 -259 102 -406
132 -47 9 -101 23 -120 30 -19 8 -64 16 -99 19 -60 6 -101 25 -101 48 0 5 11
20 25 33 54 55 185 8 185 -67 0 -23 4 -28 25 -28 31 0 32 14 3 56 -43 62 -127
93 -200 74 -50 -14 -113 -74 -123 -118 -6 -27 -11 -30 -59 -36 -151 -19 -298
-99 -368 -199 -15 -23 -4 -15 38 24 33 31 84 69 113 83 59 30 187 66 236 66
29 0 33 -3 38 -36 14 -83 107 -151 194 -141 54 6 117 46 134 87 13 29 16 30
54 24 159 -27 467 -151 718 -291 109 -61 147 -87 115 -81 -16 4 -168 -224
-277 -416 -45 -79 -81 -146 -81 -150 0 -4 10 -6 22 -4 15 2 33 23 56 63 82
144 170 287 232 380 37 55 69 106 72 113 4 16 192 -105 352 -226 180 -136 413
-338 403 -349 -2 -2 -51 1 -108 7 -57 6 -242 13 -411 17 -342 7 -557 -4 -893
-43 -241 -29 -234 -28 -259 -39 -11 -5 -34 -9 -52 -9 -18 -1 -30 -5 -26 -10 3
-5 -11 -6 -34 -3 -29 5 -35 4 -24 -4 11 -8 6 -9 -20 -5 -27 5 -31 3 -20 -5 11
-8 7 -9 -20 -6 -19 3 -29 3 -21 0 8 -3 -40 -21 -107 -39 -67 -18 -128 -31
-135 -28 -7 2 -38 -4 -68 -15 l-56 -19 -65 132 c-109 220 -156 377 -165 561
-4 86 -2 123 11 167 18 64 20 80 6 58 -41 -64 -55 -240 -30 -380 23 -132 91
-323 171 -482 32 -64 35 -78 16 -78 -18 0 -183 -81 -271 -133 -104 -61 -209
-165 -248 -245 -27 -55 -32 -77 -32 -136 0 -40 5 -80 13 -91 12 -19 12 -19 7
5 -17 72 -17 101 -2 154 14 48 28 68 93 132 93 91 182 150 328 220 162 77 142
80 214 -36 136 -219 322 -457 508 -651 l97 -100 -37 -148 c-39 -155 -44 -188
-27 -161 8 13 10 12 10 -3 0 -13 -6 -16 -22 -12 -13 2 -70 14 -128 25 -491 96
-886 281 -1015 476 -45 67 -69 152 -62 214 5 37 4 41 -4 20 -6 -14 -9 -55 -7
-91 15 -282 442 -553 1088 -689 58 -13 106 -23 107 -24 2 -1 -6 -54 -17 -117
-42 -252 -50 -532 -19 -707 11 -58 13 -63 20 -39 4 15 3 74 -3 130 -9 91 -6
252 7 416 4 56 4 56 -10 -14 l-14 -70 5 84 c6 83 39 299 48 308 3 3 60 -4 128
-15 165 -28 271 -41 405 -51 94 -8 115 -12 135 -31 41 -38 310 -213 441 -285
70 -38 127 -74 127 -79 0 -14 -96 -138 -205 -264 -222 -258 -483 -445 -642
-459 l-58 -5 0 53 c-1 111 -78 190 -190 197 -36 3 -71 -1 -84 -8 -47 -25 -60
-21 -72 21 -17 54 -23 43 -8 -14 12 -42 11 -47 -13 -76 -62 -73 -52 -202 22
-272 66 -63 171 -75 248 -27 37 22 35 27 -10 43 -30 10 -58 39 -47 49 3 3 21
1 40 -4 18 -6 78 -10 132 -10 110 0 206 26 307 82 267 150 611 534 880 982 39
64 50 90 40 96 -7 4 18 10 56 14 422 42 819 130 1094 243 298 122 513 289 570
442 27 71 21 100 -8 43 -31 -59 -153 -178 -248 -241 -72 -49 -272 -152 -319
-165 -18 -5 -23 1 -35 42 -24 82 -165 352 -258 492 -92 140 -226 319 -267 356
l-23 21 30 109 c17 60 32 111 34 113 9 10 274 -60 430 -115 l101 -35 0 -42 c0
-53 15 -83 56 -107 54 -33 155 -21 140 16 -5 14 -3 15 18 4 102 -53 230 -174
268 -253 24 -49 32 -138 17 -187 -6 -23 -6 -23 5 -5 7 10 14 52 17 92 4 67 2
79 -27 137 -34 70 -147 186 -238 245 -29 19 -53 41 -53 48 0 9 5 11 13 6 31
-19 40 -12 34 29 -13 100 -139 137 -217 63 l-26 -25 -79 31 c-101 40 -233 80
-358 110 -79 19 -96 26 -92 39 25 64 73 350 91 540 26 276 1 490 -78 663 -17
37 -32 66 -34 64 -2 -1 6 -31 16 -66 30 -94 23 -116 -9 -34 -54 137 -114 213
-200 255 -58 28 -156 33 -231 12z m525 -784 c0 -144 -23 -353 -33 -305 -3 11
-18 -36 -33 -104 -16 -68 -32 -127 -35 -130 -4 -3 -4 10 0 29 42 219 62 380
72 572 6 101 10 126 18 111 7 -11 11 -79 11 -173z m-760 -605 c94 -8 178 -15
189 -15 16 0 111 -91 275 -262 l53 -56 -27 -83 c-81 -246 -260 -660 -390 -904
-41 -77 -75 -143 -75 -147 0 -5 -12 -8 -27 -8 -14 0 -24 -2 -21 -6 11 -10 158
8 156 20 -2 6 27 70 64 141 124 242 274 590 348 809 14 44 31 81 36 83 16 5
146 -162 261 -335 106 -159 257 -447 251 -479 -8 -41 -443 -159 -699 -189 -52
-7 -58 -9 -34 -14 32 -6 -28 -16 -300 -47 -181 -21 -857 -24 -1050 -5 -209 20
-295 34 -288 45 4 6 -5 8 -25 4 -17 -4 -34 -2 -37 3 -3 4 -34 11 -69 15 -35 4
-68 10 -74 14 -8 5 -1 49 25 146 19 77 37 142 39 144 2 2 50 -39 106 -91 57
-52 149 -134 206 -181 88 -74 108 -87 139 -87 l36 0 -39 28 c-109 80 -303 250
-402 354 l-32 34 44 135 c54 165 106 301 186 490 62 143 192 412 212 436 13
16 77 19 468 21 217 1 382 -3 495 -13z m-1015 -9 c0 -2 -38 -81 -84 -177 -110
-229 -185 -411 -267 -649 -37 -107 -71 -195 -75 -194 -15 1 -229 239 -339 377
-131 163 -305 421 -292 433 20 20 284 93 482 133 203 40 575 91 575 77z m1514
-51 c44 -9 82 -17 84 -19 7 -8 -21 -121 -33 -135 -11 -11 -27 2 -91 69 -44 45
-80 86 -82 91 -5 13 32 11 122 -6z m890 -136 c47 -37 30 -56 -49 -50 -47 4
-65 12 -65 31 0 41 71 53 114 19z m-174 -1053 c-95 -52 -595 -185 -616 -164
-2 3 34 13 81 22 109 22 343 86 455 125 93 32 119 38 80 17z m-637 -173 c-7
-2 -21 -2 -30 0 -10 3 -4 5 12 5 17 0 24 -2 18 -5z m-70 -10 c-7 -2 -19 -2
-25 0 -7 3 -2 5 12 5 14 0 19 -2 13 -5z m-70 -10 c-7 -2 -19 -2 -25 0 -7 3 -2
5 12 5 14 0 19 -2 13 -5z m-1240 -130 c3 -5 173 -6 379 -3 205 3 375 5 377 3
4 -3 -25 -51 -121 -199 -49 -76 -87 -124 -100 -127 -25 -7 -122 39 -113 53 4
6 -1 7 -11 3 -12 -4 -15 -3 -10 5 5 8 1 10 -10 5 -13 -5 -15 -3 -9 7 5 9 4 11
-3 6 -16 -10 -54 12 -46 26 4 7 3 8 -4 4 -16 -10 -54 12 -46 26 4 7 3 8 -4 4
-14 -8 -55 12 -47 23 2 5 -3 8 -13 7 -9 0 -16 5 -14 12 1 8 -2 11 -7 7 -14 -8
-92 45 -84 58 3 6 1 7 -5 3 -10 -6 -132 69 -132 80 0 7 19 4 23 -3z m-766
-745 c-3 -7 -5 -2 -5 12 0 14 2 19 5 13 2 -7 2 -19 0 -25z m196 -145 c4 -3 2
-12 -4 -19 -6 -8 -9 -21 -5 -29 7 -20 53 -19 64 1 8 14 10 14 21 0 7 -8 11
-23 9 -33 -5 -28 -135 -31 -168 -5 -41 33 -7 89 56 91 11 1 24 -2 27 -6z"/>
<path d="M2186 3065 c-200 -51 -357 -223 -388 -427 -38 -254 120 -506 362
-578 79 -24 210 -26 285 -6 120 32 234 112 299 210 126 190 122 418 -10 603
-115 162 -352 247 -548 198z m313 -107 c100 -51 146 -104 146 -168 0 -22 -6
-45 -13 -52 -18 -18 -191 -23 -272 -8 -36 6 -83 13 -105 14 -37 2 -42 5 -61
46 -18 38 -27 46 -55 50 -29 4 -34 9 -37 36 -8 80 104 138 248 129 52 -3 82
-13 149 -47z"/>
<path d="M3083 1753 c9 -2 25 -2 35 0 9 3 1 5 -18 5 -19 0 -27 -2 -17 -5z"/>
<path d="M1588 1743 c6 -2 18 -2 25 0 6 3 1 5 -13 5 -14 0 -19 -2 -12 -5z"/>
<path d="M2968 1743 c12 -2 30 -2 40 0 9 3 -1 5 -23 4 -22 0 -30 -2 -17 -4z"/>
<path d="M1958 1713 c12 -2 30 -2 40 0 9 3 -1 5 -23 4 -22 0 -30 -2 -17 -4z"/>
<path d="M2618 1713 c18 -2 45 -2 60 0 15 2 0 4 -33 4 -33 0 -45 -2 -27 -4z"/>
<path d="M2398 1703 c7 -3 16 -2 19 1 4 3 -2 6 -13 5 -11 0 -14 -3 -6 -6z"/>
<path d="M1820 4110 c19 -11 40 -19 45 -19 6 0 -6 8 -25 19 -19 11 -39 19 -45
19 -5 0 6 -8 25 -19z"/>
<path d="M1881 4086 c10 -9 109 -56 109 -51 0 5 -95 55 -106 55 -4 0 -5 -2 -3
-4z"/>
<path d="M2000 4026 c0 -2 7 -7 16 -10 8 -3 12 -2 9 4 -6 10 -25 14 -25 6z"/>
<path d="M2100 3976 c0 -3 9 -10 20 -16 11 -6 20 -8 20 -6 0 3 -9 10 -20 16
-11 6 -20 8 -20 6z"/>
<path d="M978 3103 c7 -3 16 -2 19 1 4 3 -2 6 -13 5 -11 0 -14 -3 -6 -6z"/>
<path d="M4486 2343 c-6 -14 -5 -15 5 -6 7 7 10 15 7 18 -3 3 -9 -2 -12 -12z"/>
<path d="M3973 1869 c-13 -4 -23 -13 -23 -18 0 -5 12 -58 27 -118 21 -86 26
-133 27 -235 1 -108 3 -123 14 -103 19 38 34 173 27 250 -8 82 -34 217 -43
226 -4 4 -17 3 -29 -2z"/>
<path d="M1282 1680 c0 -14 2 -19 5 -12 2 6 2 18 0 25 -3 6 -5 1 -5 -13z"/>
<path d="M1271 1624 c0 -11 3 -14 6 -6 3 7 2 16 -1 19 -3 4 -6 -2 -5 -13z"/>
<path d="M1262 1560 c0 -14 2 -19 5 -12 2 6 2 18 0 25 -3 6 -5 1 -5 -13z"/>
<path d="M1252 1495 c0 -16 2 -22 5 -12 2 9 2 23 0 30 -3 6 -5 -1 -5 -18z"/>
<path d="M2625 1240 c-10 -11 -16 -22 -14 -24 3 -3 42 -21 88 -41 430 -183
805 -229 1021 -122 25 12 46 30 48 40 3 16 0 16 -50 -3 -29 -11 -102 -27 -162
-36 -100 -15 -120 -15 -255 0 -80 10 -181 26 -223 36 -74 18 -321 112 -399
151 -36 18 -37 18 -54 -1z"/>
</g>
</svg>
